#!OML:ASF F:\VICON\USERDATA\INSTALL\Justin_Nancy\Justin_Nancy.ASF
:FULLY-SPECIFIED
:DEGREES
48
root -11.1008 15.5133 -8.05815 -17.6816 18.3347 -8.03186
lowerback 21.8443 1.29452 -0.386597
upperback 5.46708 2.17714 6.05863
thorax -6.47443 1.1274 6.24845
lowerneck -6.15875 -7.67625 -9.54907
upperneck 16.1714 -10.231 5.86534
head 6.73909 -5.07005 2.59731
rclavicle -2.24627e-014 5.56597e-015
rhumerus -41.6185 17.8518 -84.7616
rradius 97.7018
rwrist -7.67737
rhand -14.0296 26.8967
rfingers 7.12502
rthumb 12.1006 -2.73336
lclavicle -2.24627e-014 5.56597e-015
lhumerus -59.788 -5.45295 84.1674
lradius 125.597
lwrist 26.5521
lhand -21.4315 5.45024
lfingers 7.12502
lthumb 4.95767 35.3722
rfemur -25.7854 -1.21751 7.30222
rtibia 67.1535
rfoot -2.16038 -4.41381
rtoes -10.3989
lfemur -27.5012 6.18184 -28.9423
ltibia 62.7168
lfoot -13.288 8.66988
ltoes 18.8177
49
root -10.9977 15.5045 -7.71231 -17.3427 18.3607 -8.16109
lowerback 21.6737 1.2866 -0.118755
upperback 5.20721 2.22594 5.99538
thorax -6.66412 1.15261 6.00954
lowerneck -5.80169 -7.77933 -9.53155
upperneck 16.4921 -10.4506 6.04532
head 6.80601 -5.16731 2.64152
rclavicle -3.23025e-015 -3.89618e-014
rhumerus -41.5533 17.2273 -84.4853
rradius 96.8669
rwrist -7.69854
rhand -14.1544 26.6968
rfingers 7.12502
rthumb 11.9803 -2.94032
lclavicle -3.23025e-015 -3.89618e-014
lhumerus -60.2615 -5.64351 84.9021
lradius 124.686
lwrist 27.6416
lhand -21.1567 5.88471
lfingers 7.12502
lthumb 5.22306 35.8003
rfemur -25.8119 -0.604754 7.27531
rtibia 63.3701
rfoot -3.92772 -5.14414
rtoes -10.7455
lfemur -27.2018 4.84322 -28.5022
ltibia 64.2856
lfoot -14.2875 8.37794
ltoes 16.9828
50
root -10.8882 15.4894 -7.35601 -16.7839 18.4774 -8.67119
lowerback 21.0389 1.03839 0.498791
upperback 5.02894 2.03337 6.15
thorax -6.49178 1.0514 5.87293
lowerneck -6.23746 -7.826 -9.66103
upperneck 16.9793 -10.4523 5.87359
head 7.03833 -5.17846 2.58451
rclavicle 2.82771e-014 1.66979e-014
rhumerus -41.318 17.0889 -84.126
rradius 96.1223
rwrist -8.17957
rhand -14.3311 26.4258
rfingers 7.12502
rthumb 11.8098 -3.22123
lclavicle 2.82771e-014 1.66979e-014
lhumerus -60.3387 -5.33315 85.6815
lradius 123.648
lwrist 28.623
lhand -22.4702 5.64561
lfingers 7.12502
lthumb 3.95475 35.5887
rfemur -25.8442 0.0349128 7.53033
rtibia 58.9717
rfoot -5.32834 -4.82086
rtoes -12.6252
lfemur -27.4133 3.8112 -27.8031
ltibia 66.0729
lfoot -14.8345 7.9972
ltoes 14.0317
51
root -10.7829 15.4705 -7.0025 -16.3322 18.1931 -9.14531
lowerback 20.5499 0.93388 1.21177
upperback 4.93768 2.0387 6.26567
thorax -6.31601 1.044 5.58348
lowerneck -6.55009 -7.81894 -9.9881
upperneck 17.3568 -10.399 5.93308
head 7.23356 -5.16129 2.64451
rclavicle -1.963e-014 -2.38542e-014
rhumerus -40.9347 16.8578 -83.8635
rradius 95.3417
rwrist -8.66434
rhand -14.2802 26.2475
rfingers 7.12502
rthumb 11.8589 -3.39664
lclavicle -1.963e-014 -2.38542e-014
lhumerus -60.0766 -5.18371 86.378
lradius 122.296
lwrist 28.9471
lhand -23.406 5.354
lfingers 7.12502
lthumb 3.05102 35.3119
rfemur -25.6851 1.34279 7.79148
rtibia 54.0672
rfoot -6.54753 -3.87817
rtoes -14.8433
lfemur -27.6503 3.55553 -27.0258
ltibia 67.9926
lfoot -15.4106 7.58347
ltoes 11.8108
52
root -10.685 15.4678 -6.66397 -15.882 17.9764 -9.29231
lowerback 20.314 0.952276 1.6708
upperback 4.8129 2.14976 6.23813
thorax -6.32048 1.09202 5.25826
lowerneck -6.43731 -7.70902 -9.81949
upperneck 17.2292 -10.2468 5.78851
head 7.14214 -5.0915 2.59313
rclavicle -1.26228e-014 1.90833e-014
rhumerus -40.4724 16.3391 -83.6867
rradius 94.3459
rwrist -9.04407
rhand -14.0765 26.5468
rfingers 7.12502
rthumb 12.0554 -3.08598
lclavicle -1.26228e-014 1.90833e-014
lhumerus -60.0674 -5.45681 87.0445
lradius 121.085
lwrist 28.5679
lhand -23.8115 5.14923
lfingers 7.12502
lthumb 2.65945 35.1124
rfemur -25.2413 2.76849 7.61973
rtibia 48.8422
rfoot -7.55711 -2.64204
rtoes -17.7741
lfemur -27.9305 3.80521 -26.6196
ltibia 70.0117
lfoot -15.839 6.96185
ltoes 9.02359
53
root -10.5854 15.4989 -6.33445 -15.1919 18.2796 -9.42971
lowerback 19.8194 0.849814 1.99332
upperback 4.65917 2.0641 6.25505
thorax -6.20845 1.04644 5.11231
lowerneck -6.65501 -7.5437 -9.23723
upperneck 16.9415 -9.9537 5.17837
head 7.00031 -4.95842 2.33033
rclavicle -2.50469e-014 -2.22639e-014
rhumerus -39.9302 15.7352 -83.4362
rradius 93.3383
rwrist -9.18649
rhand -13.6693 27.1207
rfingers 7.12502
rthumb 12.4479 -2.48857
lclavicle -2.50469e-014 -2.22639e-014
lhumerus -60.0036 -5.71767 87.7981
lradius 119.79
lwrist 27.4792
lhand -24.1455 5.15242
lfingers 7.12502
lthumb 2.33684 35.1194
rfemur -24.6891 3.70288 7.32383
rtibia 43.5787
rfoot -7.68048 -1.42626
rtoes -21.3746
lfemur -28.6323 3.98701 -26.4435
ltibia 72.0417
lfoot -15.3407 6.57643
ltoes 4.49099
54
root -10.5028 15.4878 -6.03929 -14.1031 15.4539 -8.5328
lowerback 19.7909 1.97636 1.44801
upperback 4.56554 3.42052 6.16635
thorax -6.42399 1.71313 4.98365
lowerneck -6.76684 -7.39333 -8.90948
upperneck 16.8889 -9.68601 4.66377
head 6.9401 -4.84764 2.13754
rclavicle -3.0911e-014 -1.27222e-014
rhumerus -39.5584 15.3515 -83.3042
rradius 92.3131
rwrist -9.1973
rhand -13.2219 27.2553
rfingers 7.12502
rthumb 12.8793 -2.32733
lclavicle -3.0911e-014 -1.27222e-014
lhumerus -59.7216 -5.74861 88.5344
lradius 118.07
lwrist 26.1526
lhand -24.3304 4.77683
lfingers 7.12502
lthumb 2.15822 34.7457
rfemur -25.6616 6.31573 6.78039
rtibia 38.6835
rfoot -6.52511 0.943849
rtoes -23.5772
lfemur -30.1077 7.43513 -26.668
ltibia 74.344
lfoot -13.6112 7.13583
ltoes -0.468932
55
root -10.4183 15.496 -5.71815 -13.7467 15.7155 -8.5758
lowerback 19.6851 1.8903 1.57083
upperback 4.50544 3.33183 6.17851
thorax -6.41972 1.66861 4.95056
lowerneck -6.68137 -7.32927 -8.95363
upperneck 16.8067 -9.55991 4.46663
head 6.88286 -4.80609 2.09791
rclavicle 1.5207e-014 -1.90833e-014
rhumerus -39.0819 15.3159 -83.3468
rradius 91.0624
rwrist -9.01002
rhand -13.6982 27.2782
rfingers 7.12502
rthumb 12.4201 -2.33284
lclavicle 1.5207e-014 -1.90833e-014
lhumerus -59.1116 -5.68262 89.2511
lradius 116.101
lwrist 24.7344
lhand -24.2095 4.62813
lfingers 7.12502
lthumb 2.27506 34.5957
rfemur -24.7085 6.81041 6.55759
rtibia 34.3683
rfoot -5.6466 2.52081
rtoes -22.041
lfemur -31.0127 8.14625 -26.5802
ltibia 76.5593
lfoot -11.0568 6.89941
ltoes -3.76874
56
root -10.3384 15.5091 -5.4041 -13.6003 15.9873 -8.51916
lowerback 19.9049 1.88656 1.62458
upperback 4.76449 3.33541 6.18658
thorax -6.25283 1.6679 4.92464
lowerneck -7.74259 -7.40516 -9.13463
upperneck 16.9892 -9.55144 4.46252
head 7.13688 -4.79596 2.08385
rclavicle 1.28216e-014 4.21423e-014
rhumerus -38.0217 15.0781 -83.217
rradius 89.7147
rwrist -8.56229
rhand -14.1368 27.552
rfingers 7.12502
rthumb 11.9972 -2.08414
lclavicle 1.28216e-014 4.21423e-014
lhumerus -57.7342 -5.81311 89.9204
lradius 114.011
lwrist 23.7295
lhand -24.3162 4.24376
lfingers 7.12502
lthumb 2.17197 34.2125
rfemur -23.4791 6.7947 6.55184
rtibia 30.9949
rfoot -4.85614 3.01007
rtoes -23.811
lfemur -31.7916 9.06738 -26.4169
ltibia 78.7941
lfoot -8.2509 5.78814
ltoes -5.00924
57
root -10.2639 15.5842 -5.03232 -13.9808 21.1035 -9.75754
lowerback 19.1567 0.106248 2.24139
upperback 4.95823 1.10122 6.41767
thorax -5.45575 0.572754 5.37433
lowerneck -9.02054 -7.39446 -9.46002
upperneck 17.1005 -9.41534 4.682
head 7.41582 -4.71182 2.17208
rclavicle 1.39149e-015 7.55382e-014
rhumerus -37.3623 14.4976 -83.1909
rradius 88.8804
rwrist -7.57806
rhand -13.8935 27.6238
rfingers 7.12502
rthumb 12.2317 -1.99852
lclavicle 1.39149e-015 7.55382e-014
lhumerus -56.3651 -6.06402 90.5207
lradius 112.089
lwrist 23.269
lhand -25.1649 4.10572
lfingers 7.12502
lthumb 1.35226 34.0812
rfemur -20.1622 4.40352 6.79973
rtibia 28.866
rfoot -5.68683 -0.0954781
rtoes -26.5145
lfemur -32.2705 5.68672 -25.7712
ltibia 80.6749
lfoot -4.81214 3.32942
ltoes -4.31955
